<?xml version="1.0" standalone="no"?>
<!DOCTYPE svg PUBLIC "-//W3C//DTD SVG 20010904//EN"
 "http://www.w3.org/TR/2001/REC-SVG-20010904/DTD/svg10.dtd">
<svg version="1.0" xmlns="http://www.w3.org/2000/svg"
 width="750.000000pt" height="750.000000pt" viewBox="0 0 750.000000 750.000000"
 preserveAspectRatio="xMidYMid meet">
<metadata>
Created by potrace 1.11, written by Peter Selinger 2001-2013
</metadata>
<g transform="translate(0.000000,750.000000) scale(0.100000,-0.100000)"
fill="#000000" stroke="none">
<path d="M1020 7410 c-136 -25 -248 -170 -305 -395 -47 -184 -49 -245 -45
-1471 l1 -570 -37 -65 c-241 -424 -450 -1004 -545 -1513 -5 -28 -11 -62 -14
-76 -16 -77 -52 -356 -62 -490 -10 -120 -10 -660 -1 -760 23 -236 29 -280 47
-332 43 -124 98 -212 200 -320 166 -177 426 -344 746 -481 137 -58 436 -162
565 -197 279 -75 583 -140 770 -165 14 -2 52 -8 85 -13 104 -18 351 -47 490
-58 50 -3 97 -8 105 -9 142 -26 1271 -26 1405 0 11 2 64 7 117 10 53 3 105 7
115 9 10 2 50 7 88 10 343 34 894 141 1205 236 74 23 158 48 185 57 28 8 122
43 210 78 370 147 634 305 825 495 184 182 262 346 261 545 -1 98 -11 155 -57
307 -51 171 -65 257 -63 383 2 133 18 237 69 455 89 376 112 573 106 910 -3
135 -7 263 -11 285 -3 22 -13 90 -21 150 -29 200 -108 496 -182 681 -12 29
-19 53 -18 55 2 2 7 46 10 97 4 51 9 101 10 110 2 9 7 49 10 87 4 39 9 81 11
95 3 25 10 84 20 170 21 191 62 472 107 740 58 350 35 543 -73 609 -54 33
-136 44 -225 31 -278 -42 -760 -276 -1057 -514 l-38 -30 -112 56 c-290 146
-549 228 -894 283 -216 34 -212 34 -268 40 -27 3 -63 8 -80 10 -214 27 -933
27 -1018 0 -7 -2 -41 -6 -77 -10 -349 -32 -823 -167 -1177 -335 l-121 -58
-164 162 c-258 256 -523 468 -801 640 -83 51 -217 81 -297 66z"/>
</g>
</svg>
